<svg width="20" height="20" viewBox="0 0 20 20" fill="none" xmlns="http://www.w3.org/2000/svg">
<path d="M18.3083 15.2751C18.3083 15.5751 18.2416 15.8834 18.1 16.1834C17.9583 16.4834 17.775 16.7667 17.5333 17.0334C17.125 17.4834 16.675 17.8084 16.1666 18.0167C15.6666 18.2251 15.125 18.3334 14.5416 18.3334C13.6916 18.3334 12.7833 18.1334 11.825 17.7251C10.8666 17.3167 9.90829 16.7667 8.95829 16.0751C7.99996 15.3751 7.09163 14.6001 6.22496 13.7417C5.36663 12.8751 4.59163 11.9667 3.89996 11.0167C3.21663 10.0667 2.66663 9.11675 2.26663 8.17508C1.86663 7.22508 1.66663 6.31675 1.66663 5.45008C1.66663 4.88341 1.76663 4.34175 1.96663 3.84175C2.16663 3.33341 2.48329 2.86675 2.92496 2.45008C3.45829 1.92508 4.04163 1.66675 4.65829 1.66675C4.89163 1.66675 5.12496 1.71675 5.33329 1.81675C5.54996 1.91675 5.74163 2.06675 5.89163 2.28341L7.82496 5.00841C7.97496 5.21675 8.08329 5.40841 8.15829 5.59175C8.23329 5.76675 8.27496 5.94175 8.27496 6.10008C8.27496 6.30008 8.21663 6.50008 8.09996 6.69175C7.99163 6.88341 7.83329 7.08341 7.63329 7.28341L6.99996 7.94175C6.90829 8.03341 6.86663 8.14175 6.86663 8.27508C6.86663 8.34175 6.87496 8.40008 6.89163 8.46675C6.91663 8.53341 6.94163 8.58341 6.95829 8.63341C7.10829 8.90841 7.36663 9.26675 7.73329 9.70008C8.10829 10.1334 8.50829 10.5751 8.94163 11.0167C9.39163 11.4584 9.82496 11.8667 10.2666 12.2417C10.7 12.6084 11.0583 12.8584 11.3416 13.0084C11.3833 13.0251 11.4333 13.0501 11.4916 13.0751C11.5583 13.1001 11.625 13.1084 11.7 13.1084C11.8416 13.1084 11.95 13.0584 12.0416 12.9667L12.675 12.3417C12.8833 12.1334 13.0833 11.9751 13.275 11.8751C13.4666 11.7584 13.6583 11.7001 13.8666 11.7001C14.025 11.7001 14.1916 11.7334 14.375 11.8084C14.5583 11.8834 14.75 11.9917 14.9583 12.1334L17.7166 14.0917C17.9333 14.2417 18.0833 14.4167 18.175 14.6251C18.2583 14.8334 18.3083 15.0417 18.3083 15.2751Z" stroke="#171625" stroke-width="1.5" stroke-miterlimit="10"/>
</svg>
