<svg width="20" height="20" viewBox="0 0 20 20" fill="none" xmlns="http://www.w3.org/2000/svg">
<path d="M7.1543 11.8222C7.1543 12.8864 7.97105 13.7444 8.9858 13.7444H11.0565C11.9393 13.7444 12.657 12.9937 12.657 12.0697C12.657 11.0632 12.2198 10.7084 11.568 10.4774L8.2433 9.32242C7.59155 9.09142 7.1543 8.73667 7.1543 7.73017C7.1543 6.80617 7.87205 6.05542 8.7548 6.05542H10.8255C11.8403 6.05542 12.657 6.91342 12.657 7.97767" stroke="#D3AF35" stroke-width="1.1" stroke-linecap="round" stroke-linejoin="round"/>
<path d="M9.90002 4.94995V14.85" stroke="#D3AF35" stroke-width="1.1" stroke-linecap="round" stroke-linejoin="round"/>
<path d="M9.90002 18.1499C14.4564 18.1499 18.15 14.4563 18.15 9.8999C18.15 5.34355 14.4564 1.6499 9.90002 1.6499C5.34368 1.6499 1.65002 5.34355 1.65002 9.8999C1.65002 14.4563 5.34368 18.1499 9.90002 18.1499Z" stroke="#D3AF35" stroke-width="1.1" stroke-linecap="round" stroke-linejoin="round"/>
</svg>
