<svg width="300" height="300" viewBox="0 0 300 300" fill="none" xmlns="http://www.w3.org/2000/svg">
<g clip-path="url(#clip0_23_1834)">
<path d="M300 0H0V300H300V0Z" fill="#EEEEEE"/>
<path d="M99.9992 18.1812V27.2721H90.9278H90.9089V25.0441C90.9089 21.2526 94.9784 18.1812 99.9992 18.1812Z" fill="black"/>
<path d="M109.091 18.1819H100V27.2728H109.091V18.1819Z" fill="black"/>
<path d="M118.181 27.2721H109.091V18.2V18.1812H111.318C115.11 18.1812 118.181 22.2513 118.181 27.2721Z" fill="black"/>
<path d="M145.454 18.1812V27.2721H136.382H136.364V25.0441C136.364 21.2526 140.433 18.1812 145.454 18.1812Z" fill="black"/>
<path d="M154.545 18.1819H145.454V27.2728H154.545V18.1819Z" fill="black"/>
<path d="M163.636 27.2721H154.545V18.2V18.1812H156.773C160.564 18.1812 163.636 22.2513 163.636 27.2721Z" fill="black"/>
<path d="M190.909 27.2727H181.818C181.818 27.2727 184.662 21.3312 182.175 18.1818C182.175 18.1818 190.909 18.026 190.909 27.2727Z" fill="black"/>
<path d="M99.9998 27.2727H90.9089V36.3636H99.9998V27.2727Z" fill="black"/>
<path d="M109.091 27.2727H100V36.3636H109.091V27.2727Z" fill="black"/>
<path d="M118.182 27.2727H109.091V36.3636H118.182V27.2727Z" fill="black"/>
<path d="M127.273 27.2727H118.182V36.3636H127.273V27.2727Z" fill="black"/>
<path d="M136.364 27.2727H127.273V36.3636H136.364V27.2727Z" fill="black"/>
<path d="M145.454 27.2727H136.364V36.3636H145.454V27.2727Z" fill="black"/>
<path d="M154.545 27.2727H145.454V36.3636H154.545V27.2727Z" fill="black"/>
<path d="M154.545 36.3636V27.2727H163.617H163.636V29.5C163.636 33.2922 159.566 36.3636 154.545 36.3636Z" fill="black"/>
<path d="M181.817 27.2727V36.3636C181.817 36.3636 175.875 33.5188 172.726 36.0058C172.726 36.0058 172.57 27.2727 181.817 27.2727Z" fill="black"/>
<path d="M190.909 27.2727H181.818V36.3636H190.909V27.2727Z" fill="black"/>
<path d="M200 27.2727H190.909V36.3636H200V27.2727Z" fill="black"/>
<path d="M209.09 36.3629H200V27.2908V27.272H202.227C206.019 27.272 209.09 31.3421 209.09 36.3629Z" fill="black"/>
<path d="M90.9089 36.363H99.9998V45.4345V45.4533L97.7719 45.4539C93.981 45.4539 90.9089 41.3838 90.9089 36.363Z" fill="black"/>
<path d="M109.091 36.3635H100V45.4544H109.091V36.3635Z" fill="black"/>
<path d="M118.182 36.3635H109.091V45.4544H118.182V36.3635Z" fill="black"/>
<path d="M127.273 36.3635H118.182V45.4544H127.273V36.3635Z" fill="black"/>
<path d="M136.364 36.363H145.454V45.4345V45.4533L143.227 45.4539C139.436 45.4539 136.364 41.3838 136.364 36.363Z" fill="black"/>
<path d="M154.545 36.3635H145.454V45.4544H154.545V36.3635Z" fill="black"/>
<path d="M209.091 36.3635H200V45.4544H209.091V36.3635Z" fill="black"/>
<path d="M109.091 45.4546H100V54.5455H109.091V45.4546Z" fill="black"/>
<path d="M118.182 45.4546H109.091V54.5455H118.182V45.4546Z" fill="black"/>
<path d="M127.273 45.4546H118.182V54.5455H127.273V45.4546Z" fill="black"/>
<path d="M136.363 54.5448H127.273V45.4727V45.4539H129.5C133.292 45.4539 136.363 49.524 136.363 54.5448Z" fill="black"/>
<path d="M145.454 45.4539H154.545V54.5253V54.5441L152.317 54.5448C148.526 54.5448 145.454 50.4746 145.454 45.4539Z" fill="black"/>
<path d="M163.636 54.5448H154.545V45.4727V45.4539H156.773C160.564 45.4539 163.636 49.524 163.636 54.5448Z" fill="black"/>
<path d="M181.818 54.5454H172.727C172.727 54.5454 175.571 48.6039 173.084 45.4545C173.084 45.4545 181.818 45.2987 181.818 54.5454Z" fill="black"/>
<path d="M199.999 45.4539V54.5448H190.928H190.909V52.3168C190.909 48.5253 194.978 45.4539 199.999 45.4539Z" fill="black"/>
<path d="M200 54.5455V45.4546H209.072H209.091V47.6819C209.091 51.4741 205.021 54.5455 200 54.5455Z" fill="black"/>
<path d="M99.9993 54.5454V63.6363C99.9993 63.6363 94.0571 60.7915 90.9084 63.2785C90.9084 63.2785 90.7519 54.5454 99.9993 54.5454Z" fill="black"/>
<path d="M109.091 54.5454H100V63.6363H109.091V54.5454Z" fill="black"/>
<path d="M109.091 63.6363V54.5454H118.163H118.182V56.7727C118.182 60.5649 114.112 63.6363 109.091 63.6363Z" fill="black"/>
<path d="M127.273 54.5447H136.364V63.6161V63.6349L134.136 63.6356C130.345 63.6356 127.273 59.5655 127.273 54.5447Z" fill="black"/>
<path d="M145.454 63.6356H136.364V54.5635V54.5447H138.591C142.382 54.5447 145.454 58.6148 145.454 63.6356Z" fill="black"/>
<path d="M154.545 54.5454H163.636C163.636 54.5454 160.791 60.4876 163.278 63.6363C163.278 63.6363 154.545 63.7922 154.545 54.5454Z" fill="black"/>
<path d="M181.818 54.5454H172.727V63.6363H181.818V54.5454Z" fill="black"/>
<path d="M190.909 54.5454H181.818V63.6363H190.909V54.5454Z" fill="black"/>
<path d="M190.909 63.6363V54.5454H199.981H200V56.7727C200 60.5649 195.93 63.6363 190.909 63.6363Z" fill="black"/>
<path d="M99.9993 63.6362H109.09C109.09 63.6362 106.245 69.5784 108.732 72.7271C108.732 72.7271 99.9993 72.883 99.9993 63.6362Z" fill="black"/>
<path d="M136.364 63.6357H145.454V72.7072V72.726L143.227 72.7267C139.436 72.7267 136.364 68.6565 136.364 63.6357Z" fill="black"/>
<path d="M154.545 72.7267H145.454V63.6546V63.6357H147.682C151.473 63.6357 154.545 67.7059 154.545 72.7267Z" fill="black"/>
<path d="M172.727 63.6362H181.817C181.817 63.6362 178.973 69.5784 181.46 72.7271C181.46 72.7271 172.727 72.883 172.727 63.6362Z" fill="black"/>
<path d="M209.091 72.7273H200C200 72.7273 202.844 66.7857 200.357 63.6364C200.357 63.6364 209.091 63.4806 209.091 72.7273Z" fill="black"/>
<path d="M95.4544 72.7273C97.9649 72.7273 99.9998 74.7624 99.9998 77.2727C99.9998 79.7832 97.9649 81.8182 95.4544 81.8182C92.944 81.8182 90.9089 79.7832 90.9089 77.2727C90.9089 74.7624 92.944 72.7273 95.4544 72.7273Z" fill="black"/>
<path d="M113.636 72.7273C116.147 72.7273 118.182 74.7624 118.182 77.2727C118.182 79.7832 116.147 81.8182 113.636 81.8182C111.126 81.8182 109.091 79.7832 109.091 77.2727C109.091 74.7624 111.126 72.7273 113.636 72.7273Z" fill="black"/>
<path d="M136.364 81.8181H127.273C127.273 81.8181 130.117 75.8766 127.63 72.7272C127.63 72.7272 136.364 72.5714 136.364 81.8181Z" fill="black"/>
<path d="M154.545 72.7273H145.454V81.8182H154.545V72.7273Z" fill="black"/>
<path d="M168.182 72.7273C170.692 72.7273 172.727 74.7624 172.727 77.2727C172.727 79.7832 170.692 81.8182 168.182 81.8182C165.671 81.8182 163.636 79.7832 163.636 77.2727C163.636 74.7624 165.671 72.7273 168.182 72.7273Z" fill="black"/>
<path d="M186.364 72.7273C188.874 72.7273 190.909 74.7624 190.909 77.2727C190.909 79.7832 188.874 81.8182 186.364 81.8182C183.853 81.8182 181.818 79.7832 181.818 77.2727C181.818 74.7624 183.853 72.7273 186.364 72.7273Z" fill="black"/>
<path d="M199.999 72.7273H209.09C209.09 72.7273 206.245 78.6695 208.732 81.8182C208.732 81.8182 199.999 81.974 199.999 72.7273Z" fill="black"/>
<path d="M109.091 90.9092H100C100 90.9092 102.844 84.9676 100.357 81.8183C100.357 81.8183 109.091 81.6624 109.091 90.9092Z" fill="black"/>
<path d="M136.364 81.8181H127.273V90.909H136.364V81.8181Z" fill="black"/>
<path d="M154.545 81.8181H145.454V90.909H154.545V81.8181Z" fill="black"/>
<path d="M27.2725 100H18.1816C18.1816 100 21.0258 94.0585 18.5388 90.9091C18.5388 90.9091 27.2725 90.7533 27.2725 100Z" fill="black"/>
<path d="M54.5447 90.9092V100C54.5447 100 48.6025 97.1553 45.4538 99.6423C45.4538 99.6423 45.2973 90.9092 54.5447 90.9092Z" fill="black"/>
<path d="M63.6363 90.9092H54.5454V100H63.6363V90.9092Z" fill="black"/>
<path d="M72.7271 90.9092H63.6362V100H72.7271V90.9092Z" fill="black"/>
<path d="M81.8182 90.9092H72.7273V100H81.8182V90.9092Z" fill="black"/>
<path d="M90.909 90.9092H81.8181V100H90.909V90.9092Z" fill="black"/>
<path d="M99.9998 90.9092H90.9089V100H99.9998V90.9092Z" fill="black"/>
<path d="M100 100V90.9092H109.072H109.091V93.1365C109.091 96.9287 105.021 100 100 100Z" fill="black"/>
<path d="M136.364 90.9092H127.273V100H136.364V90.9092Z" fill="black"/>
<path d="M145.454 90.9092H136.364V100H145.454V90.9092Z" fill="black"/>
<path d="M154.545 90.9092H145.454V100H154.545V90.9092Z" fill="black"/>
<path d="M163.636 90.9092H154.545V100H163.636V90.9092Z" fill="black"/>
<path d="M172.727 90.9092H163.636V100H172.727V90.9092Z" fill="black"/>
<path d="M181.818 99.9994H172.727V90.9273V90.9084H174.955C178.746 90.9084 181.818 94.9786 181.818 99.9994Z" fill="black"/>
<path d="M218.182 100H209.091C209.091 100 211.935 94.0585 209.448 90.9091C209.448 90.9091 218.182 90.7533 218.182 100Z" fill="black"/>
<path d="M245.454 100H236.364C236.364 100 239.208 94.0585 236.721 90.9091C236.721 90.9091 245.454 90.7533 245.454 100Z" fill="black"/>
<path d="M263.636 90.9084V99.9994H254.564H254.545V97.7714C254.545 93.9799 258.615 90.9084 263.636 90.9084Z" fill="black"/>
<path d="M272.727 90.9092H263.636V100H272.727V90.9092Z" fill="black"/>
<path d="M272.727 100V90.9092C272.727 90.9092 278.669 93.7533 281.818 91.2663C281.818 91.2663 281.974 100 272.727 100Z" fill="black"/>
<path d="M18.1812 100H27.2721C27.2721 100 24.4273 105.942 26.9143 109.091C26.9143 109.091 18.1812 109.247 18.1812 100Z" fill="black"/>
<path d="M45.4544 109.091H36.3635C36.3635 109.091 39.2077 103.149 36.7207 99.9999C36.7207 99.9999 45.4544 99.8441 45.4544 109.091Z" fill="black"/>
<path d="M90.9084 100H99.9994C99.9994 100 97.1546 105.942 99.6416 109.091C99.6416 109.091 90.9084 109.247 90.9084 100Z" fill="black"/>
<path d="M127.272 100H136.363C136.363 100 133.518 105.942 136.005 109.091C136.005 109.091 127.272 109.247 127.272 100Z" fill="black"/>
<path d="M154.545 100H145.454V109.091H154.545V100Z" fill="black"/>
<path d="M181.818 100H172.727V109.091H181.818V100Z" fill="black"/>
<path d="M195.454 100C197.965 100 200 102.035 200 104.545C200 107.056 197.965 109.091 195.454 109.091C192.944 109.091 190.909 107.056 190.909 104.545C190.909 102.035 192.944 100 195.454 100Z" fill="black"/>
<path d="M218.182 100H209.091V109.091H218.182V100Z" fill="black"/>
<path d="M236.363 99.9993V109.09H227.292H227.273V106.862C227.273 103.071 231.342 99.9993 236.363 99.9993Z" fill="black"/>
<path d="M236.364 109.091V100H245.436H245.454V102.227C245.454 106.019 241.384 109.091 236.364 109.091Z" fill="black"/>
<path d="M263.636 100H254.545V109.091H263.636V100Z" fill="black"/>
<path d="M263.636 109.091V100H272.708H272.727V102.227C272.727 106.019 268.657 109.091 263.636 109.091Z" fill="black"/>
<path d="M36.3628 109.091V118.182C36.3628 118.182 30.4206 115.337 27.2719 117.824C27.2719 117.824 27.1154 109.091 36.3628 109.091Z" fill="black"/>
<path d="M36.3635 118.182V109.091H45.4356H45.4544V111.318C45.4544 115.11 41.3843 118.182 36.3635 118.182Z" fill="black"/>
<path d="M63.6357 109.09V118.181H54.5642H54.5454V115.953C54.5454 112.162 58.6149 109.09 63.6357 109.09Z" fill="black"/>
<path d="M72.7271 109.091H63.6362V118.182H72.7271V109.091Z" fill="black"/>
<path d="M72.7273 118.182V109.091C72.7273 109.091 78.6689 111.935 81.8182 109.448C81.8182 109.448 81.974 118.182 72.7273 118.182Z" fill="black"/>
<path d="M109.09 109.09V118.181H100.019H100V115.953C100 112.162 104.069 109.09 109.09 109.09Z" fill="black"/>
<path d="M118.181 118.181H109.091V109.109V109.09H111.318C115.11 109.09 118.181 113.16 118.181 118.181Z" fill="black"/>
<path d="M154.545 109.091H145.454V118.182H154.545V109.091Z" fill="black"/>
<path d="M181.818 109.091H172.727V118.182H181.818V109.091Z" fill="black"/>
<path d="M181.818 118.182V109.091C181.818 109.091 187.76 111.935 190.909 109.448C190.909 109.448 191.065 118.182 181.818 118.182Z" fill="black"/>
<path d="M218.182 109.091H209.091V118.182H218.182V109.091Z" fill="black"/>
<path d="M227.272 109.091H236.363C236.363 109.091 233.518 115.033 236.005 118.182C236.005 118.182 227.272 118.338 227.272 109.091Z" fill="black"/>
<path d="M254.545 109.091H263.636C263.636 109.091 260.791 115.033 263.278 118.182C263.278 118.182 254.545 118.338 254.545 109.091Z" fill="black"/>
<path d="M54.5446 118.181V127.272H45.4732H45.4543V125.044C45.4543 121.253 49.5238 118.181 54.5446 118.181Z" fill="black"/>
<path d="M54.5454 127.273V118.182H63.6175H63.6363V120.409C63.6363 124.201 59.5662 127.273 54.5454 127.273Z" fill="black"/>
<path d="M99.9993 118.182V127.273C99.9993 127.273 94.0571 124.428 90.9084 126.915C90.9084 126.915 90.7519 118.182 99.9993 118.182Z" fill="black"/>
<path d="M109.091 118.182H100V127.273H109.091V118.182Z" fill="black"/>
<path d="M118.182 118.182H109.091V127.273H118.182V118.182Z" fill="black"/>
<path d="M154.545 118.182H145.454V127.273H154.545V118.182Z" fill="black"/>
<path d="M154.545 127.273V118.182C154.545 118.182 160.487 121.026 163.636 118.539C163.636 118.539 163.792 127.273 154.545 127.273Z" fill="black"/>
<path d="M172.727 118.182H181.817C181.817 118.182 178.973 124.124 181.46 127.273C181.46 127.273 172.727 127.429 172.727 118.182Z" fill="black"/>
<path d="M209.09 118.181V127.272H200.019H200V125.044C200 121.253 204.069 118.181 209.09 118.181Z" fill="black"/>
<path d="M218.182 118.182H209.091V127.273H218.182V118.182Z" fill="black"/>
<path d="M227.272 127.272H218.182V118.2V118.181H220.409C224.2 118.181 227.272 122.251 227.272 127.272Z" fill="black"/>
<path d="M250 118.182C252.51 118.182 254.545 120.217 254.545 122.727C254.545 125.238 252.51 127.273 250 127.273C247.489 127.273 245.454 125.238 245.454 122.727C245.454 120.217 247.489 118.182 250 118.182Z" fill="black"/>
<path d="M281.818 127.273H272.727C272.727 127.273 275.571 121.331 273.084 118.182C273.084 118.182 281.818 118.026 281.818 127.273Z" fill="black"/>
<path d="M27.272 127.273V136.364C27.272 136.364 21.3298 133.519 18.1811 136.006C18.1811 136.006 18.0246 127.273 27.272 127.273Z" fill="black"/>
<path d="M36.3636 127.273H27.2727V136.364H36.3636V127.273Z" fill="black"/>
<path d="M45.4544 127.273H36.3635V136.364H45.4544V127.273Z" fill="black"/>
<path d="M45.4543 136.364V127.273H54.5264H54.5453V129.5C54.5453 133.292 50.4751 136.364 45.4543 136.364Z" fill="black"/>
<path d="M77.2727 127.273C79.7832 127.273 81.8182 129.308 81.8182 131.818C81.8182 134.329 79.7832 136.364 77.2727 136.364C74.7624 136.364 72.7273 134.329 72.7273 131.818C72.7273 129.308 74.7624 127.273 77.2727 127.273Z" fill="black"/>
<path d="M109.09 127.273H118.181C118.181 127.273 115.336 133.215 117.823 136.364C117.823 136.364 109.09 136.519 109.09 127.273Z" fill="black"/>
<path d="M136.363 127.272V136.363H127.292H127.273V134.135C127.273 130.343 131.342 127.272 136.363 127.272Z" fill="black"/>
<path d="M145.454 127.273H136.364V136.364H145.454V127.273Z" fill="black"/>
<path d="M145.454 136.364V127.273H154.526H154.545V129.5C154.545 133.292 150.475 136.364 145.454 136.364Z" fill="black"/>
<path d="M190.909 136.364H181.818C181.818 136.364 184.662 130.422 182.175 127.273C182.175 127.273 190.909 127.117 190.909 136.364Z" fill="black"/>
<path d="M199.999 127.273H209.09C209.09 127.273 206.245 133.215 208.732 136.364C208.732 136.364 199.999 136.519 199.999 127.273Z" fill="black"/>
<path d="M227.273 127.273H218.182V136.364H227.273V127.273Z" fill="black"/>
<path d="M227.273 136.364V127.273C227.273 127.273 233.214 130.117 236.364 127.63C236.364 127.63 236.519 136.364 227.273 136.364Z" fill="black"/>
<path d="M281.818 127.273H272.727V136.364H281.818V127.273Z" fill="black"/>
<path d="M36.3628 136.364H45.4537C45.4537 136.364 42.6089 142.306 45.0959 145.454C45.0959 145.454 36.3628 145.61 36.3628 136.364Z" fill="black"/>
<path d="M127.272 136.364V145.454C127.272 145.454 121.33 142.61 118.181 145.097C118.181 145.097 118.025 136.364 127.272 136.364Z" fill="black"/>
<path d="M127.273 145.454V136.364H136.345H136.364V138.591C136.364 142.383 132.293 145.454 127.273 145.454Z" fill="black"/>
<path d="M181.818 136.363V145.454H172.746H172.727V143.226C172.727 139.434 176.797 136.363 181.818 136.363Z" fill="black"/>
<path d="M181.818 145.454V136.364H190.89H190.909V138.591C190.909 142.383 186.839 145.454 181.818 145.454Z" fill="black"/>
<path d="M218.181 136.363V145.454H209.11H209.091V143.226C209.091 139.434 213.16 136.363 218.181 136.363Z" fill="black"/>
<path d="M227.273 136.364H218.182V145.454H227.273V136.364Z" fill="black"/>
<path d="M245.454 136.364V145.454C245.454 145.454 239.512 142.61 236.363 145.097C236.363 145.097 236.206 136.364 245.454 136.364Z" fill="black"/>
<path d="M254.545 136.364H245.454V145.454H254.545V136.364Z" fill="black"/>
<path d="M263.636 136.364H254.545V145.454H263.636V136.364Z" fill="black"/>
<path d="M272.727 136.364H263.636V145.454H272.727V136.364Z" fill="black"/>
<path d="M281.818 136.364H272.727V145.454H281.818V136.364Z" fill="black"/>
<path d="M36.3636 154.545H27.2727C27.2727 154.545 30.1169 148.604 27.6298 145.455C27.6298 145.455 36.3636 145.299 36.3636 154.545Z" fill="black"/>
<path d="M72.7266 145.455V154.545C72.7266 154.545 66.7844 151.701 63.6357 154.188C63.6357 154.188 63.4792 145.455 72.7266 145.455Z" fill="black"/>
<path d="M81.8182 145.455H72.7273V154.545H81.8182V145.455Z" fill="black"/>
<path d="M90.909 145.455H81.8181V154.545H90.909V145.455Z" fill="black"/>
<path d="M90.9089 154.545V145.455C90.9089 145.455 96.8505 148.299 99.9998 145.812C99.9998 145.812 100.156 154.545 90.9089 154.545Z" fill="black"/>
<path d="M118.182 154.545H109.091C109.091 154.545 111.935 148.604 109.448 145.455C109.448 145.455 118.182 145.299 118.182 154.545Z" fill="black"/>
<path d="M154.545 145.454V154.545H145.473H145.454V152.317C145.454 148.525 149.524 145.454 154.545 145.454Z" fill="black"/>
<path d="M154.545 154.545V145.455C154.545 145.455 160.487 148.299 163.636 145.812C163.636 145.812 163.792 154.545 154.545 154.545Z" fill="black"/>
<path d="M172.727 145.455H181.817C181.817 145.455 178.973 151.397 181.46 154.545C181.46 154.545 172.727 154.701 172.727 145.455Z" fill="black"/>
<path d="M199.999 145.455V154.545C199.999 154.545 194.057 151.701 190.908 154.188C190.908 154.188 190.752 145.455 199.999 145.455Z" fill="black"/>
<path d="M209.091 145.455H200V154.545H209.091V145.455Z" fill="black"/>
<path d="M218.182 145.455H209.091V154.545H218.182V145.455Z" fill="black"/>
<path d="M227.273 145.455H218.182V154.545H227.273V145.455Z" fill="black"/>
<path d="M236.363 154.545H227.273V145.473V145.454H229.5C233.292 145.454 236.363 149.524 236.363 154.545Z" fill="black"/>
<path d="M263.636 145.455H254.545V154.545H263.636V145.455Z" fill="black"/>
<path d="M281.818 145.455H272.727V154.545H281.818V145.455Z" fill="black"/>
<path d="M27.272 154.545V163.636C27.272 163.636 21.3298 160.792 18.1811 163.279C18.1811 163.279 18.0246 154.545 27.272 154.545Z" fill="black"/>
<path d="M27.2727 163.636V154.545H36.3448H36.3636V156.773C36.3636 160.565 32.2935 163.636 27.2727 163.636Z" fill="black"/>
<path d="M63.6363 163.636H54.5454C54.5454 163.636 57.3896 157.695 54.9026 154.546C54.9026 154.546 63.6363 154.39 63.6363 163.636Z" fill="black"/>
<path d="M81.8174 154.545H90.9083C90.9083 154.545 88.0635 160.488 90.5505 163.636C90.5505 163.636 81.8174 163.792 81.8174 154.545Z" fill="black"/>
<path d="M109.09 154.545V163.636C109.09 163.636 103.148 160.792 99.9992 163.279C99.9992 163.279 99.8427 154.545 109.09 154.545Z" fill="black"/>
<path d="M109.091 163.636V154.545H118.163H118.182V156.773C118.182 160.565 114.112 163.636 109.091 163.636Z" fill="black"/>
<path d="M145.454 154.545V163.636C145.454 163.636 139.512 160.792 136.363 163.279C136.363 163.279 136.206 154.545 145.454 154.545Z" fill="black"/>
<path d="M145.454 163.636V154.545H154.526H154.545V156.773C154.545 160.565 150.475 163.636 145.454 163.636Z" fill="black"/>
<path d="M168.182 154.545C170.692 154.545 172.727 156.581 172.727 159.091C172.727 161.601 170.692 163.636 168.182 163.636C165.671 163.636 163.636 161.601 163.636 159.091C163.636 156.581 165.671 154.545 168.182 154.545Z" fill="black"/>
<path d="M186.364 154.545C188.874 154.545 190.909 156.581 190.909 159.091C190.909 161.601 188.874 163.636 186.364 163.636C183.853 163.636 181.818 161.601 181.818 159.091C181.818 156.581 183.853 154.545 186.364 154.545Z" fill="black"/>
<path d="M227.273 154.545H236.364V163.616V163.635L234.136 163.636C230.345 163.636 227.273 159.565 227.273 154.545Z" fill="black"/>
<path d="M236.364 163.636V154.545C236.364 154.545 242.305 157.39 245.454 154.903C245.454 154.903 245.61 163.636 236.364 163.636Z" fill="black"/>
<path d="M254.545 154.545H263.636C263.636 154.545 260.791 160.488 263.278 163.636C263.278 163.636 254.545 163.792 254.545 154.545Z" fill="black"/>
<path d="M272.727 154.545H281.817C281.817 154.545 278.973 160.488 281.46 163.636C281.46 163.636 272.727 163.792 272.727 154.545Z" fill="black"/>
<path d="M54.5447 163.636H63.6356C63.6356 163.636 60.7908 169.578 63.2778 172.727C63.2778 172.727 54.5447 172.883 54.5447 163.636Z" fill="black"/>
<path d="M77.2727 163.636C79.7832 163.636 81.8182 165.671 81.8182 168.182C81.8182 170.692 79.7832 172.727 77.2727 172.727C74.7624 172.727 72.7273 170.692 72.7273 168.182C72.7273 165.671 74.7624 163.636 77.2727 163.636Z" fill="black"/>
<path d="M131.818 163.636C134.329 163.636 136.364 165.671 136.364 168.182C136.364 170.692 134.329 172.727 131.818 172.727C129.308 172.727 127.273 170.692 127.273 168.182C127.273 165.671 129.308 163.636 131.818 163.636Z" fill="black"/>
<path d="M159.091 163.636C161.601 163.636 163.636 165.671 163.636 168.182C163.636 170.692 161.601 172.727 159.091 172.727C156.581 172.727 154.545 170.692 154.545 168.182C154.545 165.671 156.581 163.636 159.091 163.636Z" fill="black"/>
<path d="M199.999 163.636V172.727H190.928H190.909V170.499C190.909 166.707 194.978 163.636 199.999 163.636Z" fill="black"/>
<path d="M200 172.727V163.636C200 163.636 205.942 166.48 209.091 163.993C209.091 163.993 209.247 172.727 200 172.727Z" fill="black"/>
<path d="M250 163.636C252.51 163.636 254.545 165.671 254.545 168.182C254.545 170.692 252.51 172.727 250 172.727C247.489 172.727 245.454 170.692 245.454 168.182C245.454 165.671 247.489 163.636 250 163.636Z" fill="black"/>
<path d="M27.2725 181.818H18.1816C18.1816 181.818 21.0258 175.877 18.5388 172.727C18.5388 172.727 27.2725 172.571 27.2725 181.818Z" fill="black"/>
<path d="M49.9998 172.727C52.5103 172.727 54.5453 174.762 54.5453 177.273C54.5453 179.783 52.5103 181.818 49.9998 181.818C47.4894 181.818 45.4543 179.783 45.4543 177.273C45.4543 174.762 47.4894 172.727 49.9998 172.727Z" fill="black"/>
<path d="M99.9993 172.727V181.818C99.9993 181.818 94.0571 178.973 90.9084 181.46C90.9084 181.46 90.7519 172.727 99.9993 172.727Z" fill="black"/>
<path d="M109.09 181.817H100V172.745V172.727H102.227C106.019 172.727 109.09 176.797 109.09 181.817Z" fill="black"/>
<path d="M181.817 172.727V181.818C181.817 181.818 175.875 178.973 172.726 181.46C172.726 181.46 172.57 172.727 181.817 172.727Z" fill="black"/>
<path d="M190.909 172.727H181.818V181.818H190.909V172.727Z" fill="black"/>
<path d="M200 172.727H190.909V181.818H200V172.727Z" fill="black"/>
<path d="M240.909 172.727C243.419 172.727 245.454 174.762 245.454 177.273C245.454 179.783 243.419 181.818 240.909 181.818C238.399 181.818 236.364 179.783 236.364 177.273C236.364 174.762 238.399 172.727 240.909 172.727Z" fill="black"/>
<path d="M263.636 172.727V181.818C263.636 181.818 257.693 178.973 254.545 181.46C254.545 181.46 254.388 172.727 263.636 172.727Z" fill="black"/>
<path d="M263.636 181.818V172.727C263.636 172.727 269.578 175.571 272.727 173.084C272.727 173.084 272.883 181.818 263.636 181.818Z" fill="black"/>
<path d="M27.2725 181.818H18.1816V190.909H27.2725V181.818Z" fill="black"/>
<path d="M36.3636 181.818H27.2727V190.909H36.3636V181.818Z" fill="black"/>
<path d="M36.3635 190.909V181.818C36.3635 181.818 42.3051 184.662 45.4544 182.175C45.4544 182.175 45.6103 190.909 36.3635 190.909Z" fill="black"/>
<path d="M81.8174 181.818V190.909C81.8174 190.909 75.8752 188.064 72.7265 190.551C72.7265 190.551 72.57 181.818 81.8174 181.818Z" fill="black"/>
<path d="M90.9084 190.909H81.8181V181.836V181.818H84.0454C87.8369 181.818 90.9084 185.888 90.9084 190.909Z" fill="black"/>
<path d="M109.091 181.818H100V190.909H109.091V181.818Z" fill="black"/>
<path d="M118.181 190.909H109.091V181.836V181.818H111.318C115.11 181.818 118.181 185.888 118.181 190.909Z" fill="black"/>
<path d="M145.454 181.818V190.909H136.382H136.364V188.681C136.364 184.889 140.433 181.818 145.454 181.818Z" fill="black"/>
<path d="M145.454 190.909V181.818C145.454 181.818 151.396 184.662 154.545 182.175C154.545 182.175 154.701 190.909 145.454 190.909Z" fill="black"/>
<path d="M172.727 190.909H163.636C163.636 190.909 166.48 184.968 163.993 181.818C163.993 181.818 172.727 181.662 172.727 190.909Z" fill="black"/>
<path d="M181.818 181.818H190.909V190.889V190.908L188.681 190.909C184.89 190.909 181.818 186.838 181.818 181.818Z" fill="black"/>
<path d="M200 181.818H190.909V190.909H200V181.818Z" fill="black"/>
<path d="M218.181 181.818V190.909H209.11H209.091V188.681C209.091 184.889 213.16 181.818 218.181 181.818Z" fill="black"/>
<path d="M227.272 190.909H218.182V181.836V181.818H220.409C224.2 181.818 227.272 185.888 227.272 190.909Z" fill="black"/>
<path d="M254.545 190.909H245.454C245.454 190.909 248.299 184.968 245.811 181.818C245.811 181.818 254.545 181.662 254.545 190.909Z" fill="black"/>
<path d="M277.273 181.818C279.783 181.818 281.818 183.853 281.818 186.364C281.818 188.874 279.783 190.909 277.273 190.909C274.762 190.909 272.727 188.874 272.727 186.364C272.727 183.853 274.762 181.818 277.273 181.818Z" fill="black"/>
<path d="M27.2725 190.909H18.1816V200H27.2725V190.909Z" fill="black"/>
<path d="M36.3636 190.909H27.2727V200H36.3636V190.909Z" fill="black"/>
<path d="M63.6355 190.909V200C63.6355 200 57.6933 197.155 54.5446 199.642C54.5446 199.642 54.3881 190.909 63.6355 190.909Z" fill="black"/>
<path d="M72.7265 199.999H63.6362V190.927V190.908H65.8635C69.6551 190.908 72.7265 194.979 72.7265 199.999Z" fill="black"/>
<path d="M81.8181 190.908H90.909V199.98V199.999L88.6811 199.999C84.8902 199.999 81.8181 195.929 81.8181 190.908Z" fill="black"/>
<path d="M99.9998 190.909H90.9089V200H99.9998V190.909Z" fill="black"/>
<path d="M109.091 190.909H100V200H109.091V190.909Z" fill="black"/>
<path d="M118.182 190.909H109.091V200H118.182V190.909Z" fill="black"/>
<path d="M118.182 200V190.909C118.182 190.909 124.123 193.753 127.273 191.266C127.273 191.266 127.428 200 118.182 200Z" fill="black"/>
<path d="M145.454 190.909H136.364V200H145.454V190.909Z" fill="black"/>
<path d="M163.636 190.909V200C163.636 200 157.693 197.155 154.545 199.642C154.545 199.642 154.388 190.909 163.636 190.909Z" fill="black"/>
<path d="M163.636 200V190.909H172.708H172.727V193.136C172.727 196.929 168.657 200 163.636 200Z" fill="black"/>
<path d="M200 190.909H190.909V200H200V190.909Z" fill="black"/>
<path d="M218.182 190.909H209.091V200H218.182V190.909Z" fill="black"/>
<path d="M227.273 190.909H218.182V200H227.273V190.909Z" fill="black"/>
<path d="M236.364 190.909H227.273V200H236.364V190.909Z" fill="black"/>
<path d="M245.454 190.909H236.364V200H245.454V190.909Z" fill="black"/>
<path d="M254.545 190.909H245.454V200H254.545V190.909Z" fill="black"/>
<path d="M263.636 199.999H254.545V190.927V190.908H256.773C260.564 190.908 263.636 194.979 263.636 199.999Z" fill="black"/>
<path d="M18.1816 199.999H27.2725V209.071V209.09L25.0446 209.09C21.2537 209.09 18.1816 205.02 18.1816 199.999Z" fill="black"/>
<path d="M36.3636 200H27.2727V209.091H36.3636V200Z" fill="black"/>
<path d="M36.3635 209.091V200C36.3635 200 42.3051 202.844 45.4544 200.357C45.4544 200.357 45.6103 209.091 36.3635 209.091Z" fill="black"/>
<path d="M63.6362 199.999H72.7271V209.071V209.09L70.4992 209.09C66.7083 209.09 63.6362 205.02 63.6362 199.999Z" fill="black"/>
<path d="M72.7273 209.091V200C72.7273 200 78.6689 202.844 81.8182 200.357C81.8182 200.357 81.974 209.091 72.7273 209.091Z" fill="black"/>
<path d="M100 199.999H109.091V209.071V209.09L106.863 209.09C103.072 209.09 100 205.02 100 199.999Z" fill="black"/>
<path d="M109.091 209.091V200H118.163H118.182V202.227C118.182 206.019 114.112 209.091 109.091 209.091Z" fill="black"/>
<path d="M136.363 200V209.091C136.363 209.091 130.421 206.246 127.272 208.733C127.272 208.733 127.115 200 136.363 200Z" fill="black"/>
<path d="M145.454 200H136.364V209.091H145.454V200Z" fill="black"/>
<path d="M181.818 209.091H172.727C172.727 209.091 175.571 203.149 173.084 200C173.084 200 181.818 199.844 181.818 209.091Z" fill="black"/>
<path d="M190.909 199.999H200V209.071V209.09L197.772 209.09C193.981 209.09 190.909 205.02 190.909 199.999Z" fill="black"/>
<path d="M209.091 200H200V209.091H209.091V200Z" fill="black"/>
<path d="M218.182 200H209.091V209.091H218.182V200Z" fill="black"/>
<path d="M227.273 200H218.182V209.091H227.273V200Z" fill="black"/>
<path d="M236.364 200H227.273V209.091H236.364V200Z" fill="black"/>
<path d="M245.454 200H236.364V209.091H245.454V200Z" fill="black"/>
<path d="M254.545 200H245.454V209.091H254.545V200Z" fill="black"/>
<path d="M263.636 200H254.545V209.091H263.636V200Z" fill="black"/>
<path d="M263.636 209.091V200C263.636 200 269.578 202.844 272.727 200.357C272.727 200.357 272.883 209.091 263.636 209.091Z" fill="black"/>
<path d="M99.9998 218.182H90.9089C90.9089 218.182 93.7531 212.24 91.2661 209.091C91.2661 209.091 99.9998 208.935 99.9998 218.182Z" fill="black"/>
<path d="M122.727 209.091C125.238 209.091 127.273 211.126 127.273 213.636C127.273 216.147 125.238 218.182 122.727 218.182C120.217 218.182 118.182 216.147 118.182 213.636C118.182 211.126 120.217 209.091 122.727 209.091Z" fill="black"/>
<path d="M145.454 209.091H136.364V218.182H145.454V209.091Z" fill="black"/>
<path d="M172.726 209.09V218.181H163.655H163.636V215.953C163.636 212.162 167.706 209.09 172.726 209.09Z" fill="black"/>
<path d="M181.818 209.091H172.727V218.182H181.818V209.091Z" fill="black"/>
<path d="M181.818 218.182V209.091C181.818 209.091 187.76 211.935 190.909 209.448C190.909 209.448 191.065 218.182 181.818 218.182Z" fill="black"/>
<path d="M209.091 209.091H200V218.182H209.091V209.091Z" fill="black"/>
<path d="M245.454 209.091H236.364V218.182H245.454V209.091Z" fill="black"/>
<path d="M254.545 209.091H245.454V218.182H254.545V209.091Z" fill="black"/>
<path d="M99.9998 218.182H90.9089V227.273H99.9998V218.182Z" fill="black"/>
<path d="M145.454 218.182H136.364V227.273H145.454V218.182Z" fill="black"/>
<path d="M163.636 218.182V227.273C163.636 227.273 157.693 224.428 154.545 226.915C154.545 226.915 154.388 218.182 163.636 218.182Z" fill="black"/>
<path d="M172.727 218.182H163.636V227.273H172.727V218.182Z" fill="black"/>
<path d="M199.999 218.181V227.272H190.928H190.909V225.044C190.909 221.253 194.978 218.181 199.999 218.181Z" fill="black"/>
<path d="M209.091 218.182H200V227.273H209.091V218.182Z" fill="black"/>
<path d="M222.727 218.182C225.238 218.182 227.273 220.217 227.273 222.727C227.273 225.238 225.238 227.273 222.727 227.273C220.217 227.273 218.182 225.238 218.182 222.727C218.182 220.217 220.217 218.182 222.727 218.182Z" fill="black"/>
<path d="M245.454 218.182H236.364V227.273H245.454V218.182Z" fill="black"/>
<path d="M245.454 227.273V218.182H254.526H254.545V220.409C254.545 224.201 250.475 227.273 245.454 227.273Z" fill="black"/>
<path d="M99.9998 227.273H90.9089V236.364H99.9998V227.273Z" fill="black"/>
<path d="M109.091 227.273H100V236.364H109.091V227.273Z" fill="black"/>
<path d="M109.091 236.364V227.273C109.091 227.273 115.032 230.117 118.182 227.63C118.182 227.63 118.338 236.364 109.091 236.364Z" fill="black"/>
<path d="M136.363 227.272V236.363H127.292H127.273V234.135C127.273 230.343 131.342 227.272 136.363 227.272Z" fill="black"/>
<path d="M145.454 227.273H136.364V236.364H145.454V227.273Z" fill="black"/>
<path d="M172.727 227.273H163.636V236.364H172.727V227.273Z" fill="black"/>
<path d="M172.727 236.364V227.273C172.727 227.273 178.669 230.117 181.818 227.63C181.818 227.63 181.974 236.364 172.727 236.364Z" fill="black"/>
<path d="M200 227.273H190.909V236.364H200V227.273Z" fill="black"/>
<path d="M209.091 227.273H200V236.364H209.091V227.273Z" fill="black"/>
<path d="M245.454 227.273H236.364V236.364H245.454V227.273Z" fill="black"/>
<path d="M272.727 227.273V236.364C272.727 236.364 266.784 233.519 263.636 236.006C263.636 236.006 263.479 227.273 272.727 227.273Z" fill="black"/>
<path d="M272.727 236.364V227.273C272.727 227.273 278.669 230.117 281.818 227.63C281.818 227.63 281.974 236.364 272.727 236.364Z" fill="black"/>
<path d="M99.9998 236.364H90.9089V245.454H99.9998V236.364Z" fill="black"/>
<path d="M127.272 236.364V245.454C127.272 245.454 121.33 242.61 118.181 245.097C118.181 245.097 118.025 236.364 127.272 236.364Z" fill="black"/>
<path d="M136.364 236.364H127.273V245.454H136.364V236.364Z" fill="black"/>
<path d="M145.454 236.364H136.364V245.454H145.454V236.364Z" fill="black"/>
<path d="M163.636 236.364V245.454C163.636 245.454 157.693 242.61 154.545 245.097C154.545 245.097 154.388 236.364 163.636 236.364Z" fill="black"/>
<path d="M172.727 236.364H163.636V245.454H172.727V236.364Z" fill="black"/>
<path d="M200 236.364H190.909V245.454H200V236.364Z" fill="black"/>
<path d="M209.091 236.364H200V245.454H209.091V236.364Z" fill="black"/>
<path d="M218.182 236.364H209.091V245.454H218.182V236.364Z" fill="black"/>
<path d="M227.273 236.364H218.182V245.454H227.273V236.364Z" fill="black"/>
<path d="M236.364 236.364H227.273V245.454H236.364V236.364Z" fill="black"/>
<path d="M245.454 236.364H236.364V245.454H245.454V236.364Z" fill="black"/>
<path d="M245.454 245.454V236.364C245.454 236.364 251.396 239.208 254.545 236.721C254.545 236.721 254.701 245.454 245.454 245.454Z" fill="black"/>
<path d="M90.9084 245.455H99.9994C99.9994 245.455 97.1546 251.397 99.6416 254.545C99.6416 254.545 90.9084 254.701 90.9084 245.455Z" fill="black"/>
<path d="M127.273 245.454H136.364V254.525V254.544L134.136 254.545C130.345 254.545 127.273 250.475 127.273 245.454Z" fill="black"/>
<path d="M145.454 245.455H136.364V254.545H145.454V245.455Z" fill="black"/>
<path d="M145.454 254.545V245.455C145.454 245.455 151.396 248.299 154.545 245.812C154.545 245.812 154.701 254.545 145.454 254.545Z" fill="black"/>
<path d="M172.727 245.455H163.636V254.545H172.727V245.455Z" fill="black"/>
<path d="M181.818 245.455H172.727V254.545H181.818V245.455Z" fill="black"/>
<path d="M190.909 245.455H181.818V254.545H190.909V245.455Z" fill="black"/>
<path d="M200 245.455H190.909V254.545H200V245.455Z" fill="black"/>
<path d="M209.091 245.455H200V254.545H209.091V245.455Z" fill="black"/>
<path d="M218.182 245.455H209.091V254.545H218.182V245.455Z" fill="black"/>
<path d="M236.364 245.455H227.273V254.545H236.364V245.455Z" fill="black"/>
<path d="M272.727 254.545H263.636C263.636 254.545 266.48 248.604 263.993 245.455C263.993 245.455 272.727 245.299 272.727 254.545Z" fill="black"/>
<path d="M113.636 254.545C116.147 254.545 118.182 256.581 118.182 259.091C118.182 261.601 116.147 263.636 113.636 263.636C111.126 263.636 109.091 261.601 109.091 259.091C109.091 256.581 111.126 254.545 113.636 254.545Z" fill="black"/>
<path d="M145.454 254.545H136.364V263.636H145.454V254.545Z" fill="black"/>
<path d="M163.636 254.545H172.727C172.727 254.545 169.882 260.488 172.369 263.636C172.369 263.636 163.636 263.792 163.636 254.545Z" fill="black"/>
<path d="M218.182 254.545H209.091V263.636H218.182V254.545Z" fill="black"/>
<path d="M236.364 254.545H227.273V263.636H236.364V254.545Z" fill="black"/>
<path d="M236.364 263.636V254.545C236.364 254.545 242.305 257.39 245.454 254.903C245.454 254.903 245.61 263.636 236.364 263.636Z" fill="black"/>
<path d="M263.636 254.545V263.636H254.564H254.545V261.408C254.545 257.616 258.615 254.545 263.636 254.545Z" fill="black"/>
<path d="M272.727 254.545H263.636V263.636H272.727V254.545Z" fill="black"/>
<path d="M281.818 263.636H272.727V254.564V254.545H274.955C278.746 254.545 281.818 258.615 281.818 263.636Z" fill="black"/>
<path d="M127.273 272.727H118.182C118.182 272.727 121.026 266.786 118.539 263.636C118.539 263.636 127.273 263.481 127.273 272.727Z" fill="black"/>
<path d="M136.363 263.636H145.454C145.454 263.636 142.609 269.578 145.096 272.727C145.096 272.727 136.363 272.883 136.363 263.636Z" fill="black"/>
<path d="M159.091 263.636C161.601 263.636 163.636 265.671 163.636 268.182C163.636 270.692 161.601 272.727 159.091 272.727C156.581 272.727 154.545 270.692 154.545 268.182C154.545 265.671 156.581 263.636 159.091 263.636Z" fill="black"/>
<path d="M209.09 263.636H218.181C218.181 263.636 215.336 269.578 217.823 272.727C217.823 272.727 209.09 272.883 209.09 263.636Z" fill="black"/>
<path d="M227.272 263.636H236.363C236.363 263.636 233.518 269.578 236.005 272.727C236.005 272.727 227.272 272.883 227.272 263.636Z" fill="black"/>
<path d="M254.545 263.636V272.727H245.473H245.454V270.499C245.454 266.707 249.524 263.636 254.545 263.636Z" fill="black"/>
<path d="M254.545 272.727V263.636H263.617H263.636V265.864C263.636 269.656 259.566 272.727 254.545 272.727Z" fill="black"/>
<path d="M272.727 263.636H281.817C281.817 263.636 278.973 269.578 281.46 272.727C281.46 272.727 272.727 272.883 272.727 263.636Z" fill="black"/>
<path d="M95.4544 272.727C97.9649 272.727 99.9998 274.762 99.9998 277.273C99.9998 279.783 97.9649 281.818 95.4544 281.818C92.944 281.818 90.9089 279.783 90.9089 277.273C90.9089 274.762 92.944 272.727 95.4544 272.727Z" fill="black"/>
<path d="M118.182 272.727H127.273V281.798V281.817L125.045 281.817C121.254 281.817 118.182 277.747 118.182 272.727Z" fill="black"/>
<path d="M127.273 281.818V272.727C127.273 272.727 133.214 275.571 136.364 273.084C136.364 273.084 136.519 281.818 127.273 281.818Z" fill="black"/>
<path d="M181.817 272.727V281.818C181.817 281.818 175.875 278.973 172.726 281.46C172.726 281.46 172.57 272.727 181.817 272.727Z" fill="black"/>
<path d="M190.909 272.727H181.818V281.818H190.909V272.727Z" fill="black"/>
<path d="M200 272.727H190.909V281.818H200V272.727Z" fill="black"/>
<path d="M200 281.818V272.727C200 272.727 205.942 275.571 209.091 273.084C209.091 273.084 209.247 281.818 200 281.818Z" fill="black"/>
<path d="M222.727 272.727C225.238 272.727 227.273 274.762 227.273 277.273C227.273 279.783 225.238 281.818 222.727 281.818C220.217 281.818 218.182 279.783 218.182 277.273C218.182 274.762 220.217 272.727 222.727 272.727Z" fill="black"/>
<path d="M245.454 272.727V281.818C245.454 281.818 239.512 278.973 236.363 281.46C236.363 281.46 236.206 272.727 245.454 272.727Z" fill="black"/>
<path d="M245.454 281.818V272.727H254.526H254.545V274.955C254.545 278.747 250.475 281.818 245.454 281.818Z" fill="black"/>
<path d="M81.818 18.182V39.9081V60.0923C81.818 65.4956 81.818 81.8184 81.818 81.8184C81.818 81.8184 66.838 81.8184 60.3407 81.8184H18.1816L18.1944 39.9081C18.1944 27.9311 27.8289 18.182 39.678 18.182H60.3407H81.818ZM72.2725 27.7275H39.678C33.0955 27.7275 27.7398 33.1913 27.7398 39.9106L27.7296 72.2729H72.2725V27.7275Z" fill="black"/>
<path d="M218.182 18.182V39.9081V60.0923C218.182 65.4956 218.182 81.8184 218.182 81.8184C218.182 81.8184 233.162 81.8184 239.659 81.8184H281.818L281.805 39.9081C281.805 27.9311 272.171 18.182 260.322 18.182H239.659H218.182ZM227.727 27.7275H260.322C266.904 27.7275 272.26 33.1913 272.26 39.9106L272.27 72.2729H227.727V27.7275Z" fill="black"/>
<path d="M81.818 281.818V260.092V239.908C81.818 234.505 81.818 218.182 81.818 218.182C81.818 218.182 66.838 218.182 60.3407 218.182H18.1816L18.1944 260.092C18.1944 272.069 27.8289 281.818 39.678 281.818H60.3407H81.818ZM72.2725 272.273H39.678C33.0955 272.273 27.7398 266.809 27.7398 260.09L27.7296 227.727H72.2725V272.273Z" fill="black"/>
<path d="M63.6363 36.3635H36.3635V63.6363H63.6363V36.3635Z" fill="black"/>
<path d="M263.636 36.3635H236.364V63.6363H263.636V36.3635Z" fill="black"/>
<path d="M63.6363 236.364H36.3635V263.636H63.6363V236.364Z" fill="black"/>
</g>
<defs>
<clipPath id="clip0_23_1834">
<rect width="300" height="300" rx="30" fill="white"/>
</clipPath>
</defs>
</svg>
