<svg width="21" height="20" viewBox="0 0 21 20" fill="none" xmlns="http://www.w3.org/2000/svg">
<path d="M7.9043 11.8222C7.9043 12.8864 8.72105 13.7444 9.7358 13.7444H11.8065C12.6893 13.7444 13.407 12.9937 13.407 12.0697C13.407 11.0632 12.9698 10.7084 12.318 10.4774L8.9933 9.32242C8.34155 9.09142 7.9043 8.73667 7.9043 7.73017C7.9043 6.80617 8.62205 6.05542 9.5048 6.05542H11.5755C12.5903 6.05542 13.407 6.91342 13.407 7.97767" stroke="white" stroke-width="1.1" stroke-linecap="round" stroke-linejoin="round"/>
<path d="M10.65 4.94995V14.85" stroke="white" stroke-width="1.1" stroke-linecap="round" stroke-linejoin="round"/>
<path d="M10.65 18.1499C15.2064 18.1499 18.9 14.4563 18.9 9.8999C18.9 5.34355 15.2064 1.6499 10.65 1.6499C6.09368 1.6499 2.40002 5.34355 2.40002 9.8999C2.40002 14.4563 6.09368 18.1499 10.65 18.1499Z" stroke="white" stroke-width="1.1" stroke-linecap="round" stroke-linejoin="round"/>
</svg>
