<svg width="373" height="99" viewBox="0 0 373 99" fill="none" xmlns="http://www.w3.org/2000/svg">
<g filter="url(#filter0_d_23_549)">
<g clip-path="url(#clip0_23_549)">
<rect y="-26" width="373" height="169" rx="10" fill="white"/>
<rect x="163.787" y="61.4058" width="86.2641" height="4.75" rx="2.375" transform="rotate(-136.706 163.787 61.4058)" fill="#D9D9D9"/>
<rect x="76.418" y="-2.70288" width="71.7509" height="4.75" rx="2.375" transform="rotate(135.543 76.418 -2.70288)" fill="#D9D9D9"/>
<rect x="178.336" y="47.8914" width="89.9326" height="68.2198" rx="7" transform="rotate(-134.77 178.336 47.8914)" fill="#D9D9D9"/>
<path d="M13.1439 37.1236C10.4929 39.9374 6.06267 40.0694 3.24882 37.4183L-5.90485 28.7942C-8.7187 26.1431 -8.85067 21.7129 -6.19961 18.8991L36.7601 -26.6985C39.4112 -29.5124 43.8414 -29.6443 46.6552 -26.9933L55.8089 -18.3691C58.6227 -15.7181 58.7547 -11.2879 56.1036 -8.47404L13.1439 37.1236Z" fill="#CEF1AA"/>
<rect x="97.6709" y="122.78" width="85.9414" height="75.4683" rx="7" transform="rotate(-134.767 97.6709 122.78)" fill="#D9D9D9"/>
<rect x="147.55" y="6.64404" width="32.6389" height="19.9571" rx="1" transform="rotate(-134.77 147.55 6.64404)" fill="#BBBBBB"/>
<rect x="163.838" y="21.9043" width="14.3034" height="33.4093" rx="1" transform="rotate(-134.77 163.838 21.9043)" fill="#BBBBBB"/>
<rect x="197.68" y="2.87109" width="27.0682" height="15.1209" rx="1" transform="rotate(-134.77 197.68 2.87109)" fill="#8792AA"/>
<rect x="179.652" y="40.4192" width="20.8046" height="18.7897" rx="1" transform="rotate(-134.77 179.652 40.4192)" fill="#BBBBBB"/>
<rect x="195.652" y="25.0029" width="20.8046" height="13.376" rx="1" transform="rotate(-134.77 195.652 25.0029)" fill="#BBBBBB"/>
<rect x="234.5" y="-7.5" width="16" height="16" rx="8" stroke="#D9D9D9"/>
<rect x="315.916" y="52.2317" width="79.0893" height="42.7802" rx="7" transform="rotate(-134.77 315.916 52.2317)" fill="#D9D9D9"/>
<rect x="362.904" y="17.5156" width="85.0597" height="70.413" rx="7" transform="rotate(-134.77 362.904 17.5156)" fill="#CEF1AA"/>
<rect x="362.548" y="171.762" width="99.443" height="116.895" rx="7" transform="rotate(-134.77 362.548 171.762)" fill="#CEF1AA"/>
<path d="M346 11V9C346 7.89543 346.895 7 348 7H350M346 19V21C346 22.1046 346.895 23 348 23H350M358 7H360C361.105 7 362 7.89543 362 9V11M362 19V21C362 22.1046 361.105 23 360 23H358" stroke="#D3AF35" stroke-width="1.7"/>
<rect x="179.443" y="71" width="84.1409" height="161.201" rx="7" transform="rotate(45.23 179.443 71)" fill="#D9D9D9"/>
<rect x="175.714" y="80.7119" width="32.6389" height="18.2982" rx="1" transform="rotate(45.23 175.714 80.7119)" fill="#BBBBBB"/>
<rect x="157.253" y="98.7935" width="10.5742" height="88.7646" rx="1" transform="rotate(45.23 157.253 98.7935)" fill="#BBBBBB"/>
<rect x="252.753" y="115.966" width="78.5979" height="62.0459" rx="7" transform="rotate(-134.77 252.753 115.966)" fill="#D9D9D9"/>
<rect x="17.9668" y="198.766" width="110.707" height="91.7395" rx="7" transform="rotate(-134.77 17.9668 198.766)" fill="#CEF1AA"/>
<rect x="175" y="62" width="15" height="15" rx="7.5" fill="#171625"/>
<path d="M183.875 68.8125C183.875 69.5719 183.259 70.1875 182.5 70.1875C181.741 70.1875 181.125 69.5719 181.125 68.8125C181.125 68.0531 181.741 67.4375 182.5 67.4375C183.259 67.4375 183.875 68.0531 183.875 68.8125Z" stroke="white" stroke-width="0.7" stroke-linecap="round" stroke-linejoin="round"/>
<path d="M185.938 68.8125C185.938 72.086 182.5 73.9688 182.5 73.9688C182.5 73.9688 179.062 72.086 179.062 68.8125C179.062 66.914 180.602 65.375 182.5 65.375C184.398 65.375 185.938 66.914 185.938 68.8125Z" stroke="white" stroke-width="0.7" stroke-linecap="round" stroke-linejoin="round"/>
<path d="M157.113 48.9H157.703L160.653 56H159.913L158.993 53.78H155.803L154.893 56H154.143L157.113 48.9ZM158.833 53.23L157.403 49.72L155.953 53.23H158.833ZM163.826 55.75C163.773 55.77 163.69 55.8067 163.576 55.86C163.463 55.9133 163.326 55.96 163.166 56C163.006 56.04 162.833 56.06 162.646 56.06C162.453 56.06 162.27 56.0233 162.096 55.95C161.93 55.8767 161.796 55.7667 161.696 55.62C161.596 55.4667 161.546 55.28 161.546 55.06V51.33H160.826V50.79H161.546V49.03H162.226V50.79H163.426V51.33H162.226V54.87C162.24 55.0567 162.306 55.1967 162.426 55.29C162.553 55.3833 162.696 55.43 162.856 55.43C163.043 55.43 163.213 55.4 163.366 55.34C163.52 55.2733 163.613 55.2267 163.646 55.2L163.826 55.75ZM172.426 56H171.746V53.09C171.746 52.4833 171.649 52.0367 171.456 51.75C171.262 51.4633 170.976 51.32 170.596 51.32C170.202 51.32 169.849 51.46 169.536 51.74C169.229 52.02 169.012 52.38 168.886 52.82V56H168.206V53.09C168.206 52.4767 168.112 52.03 167.926 51.75C167.739 51.4633 167.452 51.32 167.066 51.32C166.679 51.32 166.329 51.4567 166.016 51.73C165.702 52.0033 165.482 52.3633 165.356 52.81V56H164.676V50.79H165.296V51.97C165.516 51.5633 165.796 51.25 166.136 51.03C166.482 50.81 166.866 50.7 167.286 50.7C167.719 50.7 168.069 50.8233 168.336 51.07C168.602 51.3167 168.766 51.64 168.826 52.04C169.066 51.6 169.352 51.2667 169.686 51.04C170.026 50.8133 170.409 50.7 170.836 50.7C171.129 50.7 171.376 50.7533 171.576 50.86C171.782 50.9667 171.946 51.12 172.066 51.32C172.192 51.5133 172.282 51.75 172.336 52.03C172.396 52.3033 172.426 52.61 172.426 52.95V56ZM176.085 56.1C175.712 56.1 175.365 56.03 175.045 55.89C174.732 55.7433 174.459 55.5467 174.225 55.3C173.999 55.0467 173.822 54.76 173.695 54.44C173.569 54.1133 173.505 53.77 173.505 53.41C173.505 53.0367 173.569 52.69 173.695 52.37C173.822 52.0433 174.002 51.7567 174.235 51.51C174.469 51.2567 174.742 51.06 175.055 50.92C175.375 50.7733 175.722 50.7 176.095 50.7C176.469 50.7 176.812 50.7733 177.125 50.92C177.439 51.06 177.712 51.2567 177.945 51.51C178.179 51.7567 178.359 52.0433 178.485 52.37C178.612 52.69 178.675 53.0367 178.675 53.41C178.675 53.77 178.612 54.1133 178.485 54.44C178.359 54.76 178.179 55.0467 177.945 55.3C177.719 55.5467 177.445 55.7433 177.125 55.89C176.812 56.03 176.465 56.1 176.085 56.1ZM174.195 53.42C174.195 53.8067 174.279 54.16 174.445 54.48C174.619 54.7933 174.849 55.0433 175.135 55.23C175.422 55.41 175.739 55.5 176.085 55.5C176.432 55.5 176.749 55.4067 177.035 55.22C177.322 55.0333 177.552 54.78 177.725 54.46C177.899 54.1333 177.985 53.78 177.985 53.4C177.985 53.0133 177.899 52.66 177.725 52.34C177.552 52.02 177.322 51.7667 177.035 51.58C176.749 51.3933 176.432 51.3 176.085 51.3C175.739 51.3 175.422 51.3967 175.135 51.59C174.855 51.7833 174.629 52.04 174.455 52.36C174.282 52.6733 174.195 53.0267 174.195 53.42ZM181.523 56.1C181.096 56.1 180.699 56.03 180.333 55.89C179.966 55.75 179.649 55.5367 179.383 55.25L179.663 54.77C179.956 55.0433 180.249 55.2433 180.543 55.37C180.843 55.49 181.159 55.55 181.493 55.55C181.899 55.55 182.229 55.47 182.483 55.31C182.736 55.1433 182.863 54.9067 182.863 54.6C182.863 54.3933 182.799 54.2367 182.673 54.13C182.553 54.0167 182.376 53.9267 182.143 53.86C181.916 53.7867 181.643 53.71 181.323 53.63C180.963 53.53 180.659 53.4267 180.413 53.32C180.173 53.2067 179.989 53.0667 179.863 52.9C179.743 52.7267 179.683 52.5033 179.683 52.23C179.683 51.89 179.766 51.61 179.933 51.39C180.106 51.1633 180.339 50.9933 180.633 50.88C180.933 50.76 181.266 50.7 181.632 50.7C182.033 50.7 182.386 50.7633 182.693 50.89C182.999 51.0167 183.249 51.1933 183.443 51.42L183.113 51.88C182.926 51.6667 182.703 51.51 182.443 51.41C182.189 51.3033 181.906 51.25 181.593 51.25C181.379 51.25 181.176 51.28 180.983 51.34C180.789 51.3933 180.629 51.4867 180.503 51.62C180.383 51.7467 180.323 51.9233 180.323 52.15C180.323 52.3367 180.369 52.4833 180.463 52.59C180.556 52.69 180.696 52.7767 180.883 52.85C181.069 52.9167 181.299 52.99 181.573 53.07C181.966 53.1767 182.309 53.2867 182.603 53.4C182.896 53.5067 183.123 53.6467 183.283 53.82C183.443 53.9933 183.523 54.2367 183.523 54.55C183.523 55.0367 183.339 55.4167 182.973 55.69C182.606 55.9633 182.123 56.1 181.523 56.1ZM187.306 56.1C186.873 56.1 186.483 55.9867 186.136 55.76C185.796 55.5333 185.526 55.2533 185.326 54.92V58.13H184.646V50.79H185.256V51.8C185.463 51.4733 185.74 51.21 186.086 51.01C186.433 50.8033 186.803 50.7 187.196 50.7C187.556 50.7 187.886 50.7767 188.186 50.93C188.486 51.0767 188.746 51.2767 188.966 51.53C189.186 51.7833 189.356 52.0733 189.476 52.4C189.603 52.72 189.666 53.0533 189.666 53.4C189.666 53.8867 189.566 54.3367 189.366 54.75C189.173 55.1567 188.9 55.4833 188.546 55.73C188.193 55.9767 187.78 56.1 187.306 56.1ZM187.116 55.5C187.403 55.5 187.66 55.4433 187.886 55.33C188.113 55.21 188.306 55.05 188.466 54.85C188.633 54.65 188.76 54.4267 188.846 54.18C188.933 53.9267 188.976 53.6667 188.976 53.4C188.976 53.12 188.926 52.8533 188.826 52.6C188.733 52.3467 188.596 52.1233 188.416 51.93C188.236 51.7367 188.03 51.5833 187.796 51.47C187.563 51.3567 187.31 51.3 187.036 51.3C186.863 51.3 186.683 51.3333 186.496 51.4C186.31 51.4667 186.13 51.5633 185.956 51.69C185.79 51.81 185.65 51.9467 185.536 52.1C185.423 52.2533 185.353 52.4167 185.326 52.59V54.19C185.433 54.4367 185.576 54.66 185.756 54.86C185.936 55.0533 186.143 55.21 186.376 55.33C186.616 55.4433 186.863 55.5 187.116 55.5ZM195.198 56H194.518V53.09C194.518 52.5033 194.415 52.0633 194.208 51.77C194.002 51.47 193.705 51.32 193.318 51.32C193.065 51.32 192.812 51.3867 192.558 51.52C192.312 51.6467 192.092 51.8233 191.898 52.05C191.712 52.27 191.578 52.5233 191.498 52.81V56H190.818V48.7H191.498V51.97C191.705 51.5833 191.992 51.2767 192.358 51.05C192.732 50.8167 193.128 50.7 193.548 50.7C193.848 50.7 194.102 50.7533 194.308 50.86C194.522 50.9667 194.692 51.1233 194.818 51.33C194.952 51.53 195.048 51.7667 195.108 52.04C195.168 52.3067 195.198 52.61 195.198 52.95V56ZM198.898 56.1C198.525 56.1 198.178 56.03 197.858 55.89C197.538 55.7433 197.262 55.5467 197.028 55.3C196.795 55.0467 196.612 54.7567 196.478 54.43C196.352 54.1033 196.288 53.7533 196.288 53.38C196.288 52.8933 196.398 52.4467 196.618 52.04C196.845 51.6333 197.155 51.31 197.548 51.07C197.942 50.8233 198.388 50.7 198.888 50.7C199.402 50.7 199.848 50.8233 200.228 51.07C200.615 51.3167 200.918 51.6433 201.138 52.05C201.358 52.45 201.468 52.89 201.468 53.37C201.468 53.4233 201.468 53.4767 201.468 53.53C201.468 53.5767 201.465 53.6133 201.458 53.64H196.998C197.032 54.0133 197.135 54.3467 197.308 54.64C197.488 54.9267 197.718 55.1567 197.998 55.33C198.285 55.4967 198.595 55.58 198.928 55.58C199.268 55.58 199.588 55.4933 199.888 55.32C200.195 55.1467 200.408 54.92 200.528 54.64L201.118 54.8C201.012 55.0467 200.848 55.27 200.628 55.47C200.408 55.67 200.148 55.8267 199.848 55.94C199.555 56.0467 199.238 56.1 198.898 56.1ZM196.978 53.15H200.828C200.802 52.77 200.698 52.4367 200.518 52.15C200.345 51.8633 200.115 51.64 199.828 51.48C199.548 51.3133 199.238 51.23 198.898 51.23C198.558 51.23 198.248 51.3133 197.968 51.48C197.688 51.64 197.458 51.8667 197.278 52.16C197.105 52.4467 197.005 52.7767 196.978 53.15ZM205.118 51.39C204.664 51.4033 204.264 51.53 203.918 51.77C203.578 52.01 203.338 52.34 203.198 52.76V56H202.518V50.79H203.158V52.04C203.338 51.6733 203.574 51.3767 203.868 51.15C204.168 50.9233 204.484 50.7967 204.818 50.77C204.884 50.7633 204.941 50.76 204.988 50.76C205.041 50.76 205.084 50.7633 205.118 50.77V51.39ZM208.107 56.1C207.734 56.1 207.387 56.03 207.067 55.89C206.747 55.7433 206.471 55.5467 206.237 55.3C206.004 55.0467 205.821 54.7567 205.687 54.43C205.561 54.1033 205.497 53.7533 205.497 53.38C205.497 52.8933 205.607 52.4467 205.827 52.04C206.054 51.6333 206.364 51.31 206.757 51.07C207.151 50.8233 207.597 50.7 208.097 50.7C208.611 50.7 209.057 50.8233 209.437 51.07C209.824 51.3167 210.127 51.6433 210.347 52.05C210.567 52.45 210.677 52.89 210.677 53.37C210.677 53.4233 210.677 53.4767 210.677 53.53C210.677 53.5767 210.674 53.6133 210.667 53.64H206.207C206.241 54.0133 206.344 54.3467 206.517 54.64C206.697 54.9267 206.927 55.1567 207.207 55.33C207.494 55.4967 207.804 55.58 208.137 55.58C208.477 55.58 208.797 55.4933 209.097 55.32C209.404 55.1467 209.617 54.92 209.737 54.64L210.327 54.8C210.221 55.0467 210.057 55.27 209.837 55.47C209.617 55.67 209.357 55.8267 209.057 55.94C208.764 56.0467 208.447 56.1 208.107 56.1ZM206.187 53.15H210.037C210.011 52.77 209.907 52.4367 209.727 52.15C209.554 51.8633 209.324 51.64 209.037 51.48C208.757 51.3133 208.447 51.23 208.107 51.23C207.767 51.23 207.457 51.3133 207.177 51.48C206.897 51.64 206.667 51.8667 206.487 52.16C206.314 52.4467 206.214 52.7767 206.187 53.15Z" fill="#171625"/>
</g>
<rect x="0.5" y="-25.5" width="372" height="168" rx="9.5" stroke="#E8E8E8"/>
</g>
<defs>
<filter id="filter0_d_23_549" x="-26" y="-51" width="425" height="221" filterUnits="userSpaceOnUse" color-interpolation-filters="sRGB">
<feFlood flood-opacity="0" result="BackgroundImageFix"/>
<feColorMatrix in="SourceAlpha" type="matrix" values="0 0 0 0 0 0 0 0 0 0 0 0 0 0 0 0 0 0 127 0" result="hardAlpha"/>
<feMorphology radius="1" operator="dilate" in="SourceAlpha" result="effect1_dropShadow_23_549"/>
<feOffset dy="1"/>
<feGaussianBlur stdDeviation="12.5"/>
<feComposite in2="hardAlpha" operator="out"/>
<feColorMatrix type="matrix" values="0 0 0 0 0 0 0 0 0 0 0 0 0 0 0 0 0 0 0.1 0"/>
<feBlend mode="normal" in2="BackgroundImageFix" result="effect1_dropShadow_23_549"/>
<feBlend mode="normal" in="SourceGraphic" in2="effect1_dropShadow_23_549" result="shape"/>
</filter>
<clipPath id="clip0_23_549">
<rect y="-26" width="373" height="169" rx="10" fill="white"/>
</clipPath>
</defs>
</svg>
