<svg width="120" height="120" viewBox="0 0 120 120" fill="none" xmlns="http://www.w3.org/2000/svg">
<circle opacity="0.1" cx="60" cy="60" r="60" fill="#0FB957"/>
<circle cx="60" cy="60" r="44" fill="#0FB957"/>
<path d="M60.0001 45.8358C51.5514 45.8358 44.6667 52.7205 44.6667 61.1692C44.6667 69.6178 51.5514 76.5025 60.0001 76.5025C68.4488 76.5025 75.3334 69.6178 75.3334 61.1692C75.3334 52.7205 68.4488 45.8358 60.0001 45.8358ZM67.3294 57.6425L58.6354 66.3365C58.4207 66.5512 58.1294 66.6738 57.8228 66.6738C57.5161 66.6738 57.2247 66.5512 57.0101 66.3365L52.6707 61.9972C52.2261 61.5525 52.2261 60.8165 52.6707 60.3718C53.1154 59.9271 53.8514 59.9271 54.2961 60.3718L57.8228 63.8985L65.7041 56.0172C66.1488 55.5725 66.8848 55.5725 67.3294 56.0172C67.7741 56.4618 67.7741 57.1825 67.3294 57.6425Z" fill="white"/>
</svg>
